<?xml version="1.0" encoding="UTF-8"?>
<svg width="256px" height="162px" viewBox="0 0 256 162" version="1.1" xmlns="http://www.w3.org/2000/svg" xmlns:xlink="http://www.w3.org/1999/xlink">
    <!-- Generator: Sketch 61.2 (89653) - https://sketch.com -->
    <title>Group 11</title>
    <desc>Created with Sketch.</desc>
    <g id="Abmahncheck" stroke="none" stroke-width="1" fill="none" fill-rule="evenodd">
        <g id="Abmahncheck-Ergebnis" transform="translate(-833.000000, -297.000000)" fill-rule="nonzero">
            <g id="graph" transform="translate(834.000000, 298.000000)">
                <g id="Group-11">
                    <path d="M37.7477208,38 C14.7446819,60.9411665 -7.10542736e-15,92.6155079 -7.10542736e-15,127.547214 C-7.10542736e-15,131.666617 3.3423006,135 7.47272456,135 C23.6970059,135 36.5829722,135 52.8072535,135 C56.9376775,135 60.2799781,131.666617 60.2799781,127.547214 C60.2799781,109.053373 67.7039833,91.1450604 79.8820334,79 L75.397798,60.6440488 L62.8819808,48.1616256 L37.7477208,38 Z" id="Path" stroke="#000000" stroke-width="2" fill="#249132"></path>
                    <path d="M126.452786,0 C126.452786,2.43969727 119,4.81427631 119,7.13815258 C119,22.9459792 119,36.4184966 119,52.1955039 C119,54.6202886 126.452786,57.0997527 126.452786,59.6503001 C144.946627,59.6503001 161.715396,67.1756826 173.860456,79.3269458 L180.640504,80 L211.848798,48.7770446 L216,37.1676049 C193.058337,14.2151636 161.383995,0 126.452786,0 Z" id="Path" stroke="#000000" stroke-width="2" fill="#FFAE00"></path>
                    <path d="M38,37.0144187 L79.8820334,79 C91.9533704,66.8988182 108.619667,59.4044516 127,59.4044516 C127,37.9084557 127,21.4959958 127,0 C92.282252,0 60.8014692,14.1565758 38,37.0144187 Z" id="Path" stroke="#000000" stroke-width="2" fill="#FFDC0F"></path>
                    <path d="M216.252279,38 L174,80.1395438 C186.17805,92.2846042 193.720022,109.053373 193.720022,127.547214 C193.720022,131.666617 197.062323,135 201.192746,135 C217.417028,135 230.302994,135 246.527275,135 C250.657699,135 254,131.666617 254,127.547214 C254,92.6155079 239.255318,60.9411665 216.252279,38 Z" id="Path" stroke="#000000" stroke-width="2" fill="#BC1417"></path>
                    <path d="M22.4,160.176 C25.056,160.176 26.352,157.968 26.352,154.752 C26.352,151.904 25.264,149.424 22.48,149.424 C19.792,149.424 18.512,151.808 18.512,154.816 C18.528,157.76 19.712,160.176 22.4,160.176 Z M22.464,158.336 C21.554963,158.336 20.9871715,157.28259 20.9606471,155.075759 L20.96,154.816 C20.944,152.4 21.552,151.264 22.448,151.264 C23.424,151.264 23.92,152.48 23.92,154.784 C23.92,157.152 23.408,158.336 22.464,158.336 Z M30.144,155.824 C31.648,155.824 33.024,154.688 33.024,152.512 C33.024,150.736 32.016,149.424 30.224,149.424 C28.448,149.424 27.312,150.832 27.312,152.688 C27.312,154.64 28.56,155.824 30.144,155.824 Z M31.568,160.176 L37.552,149.424 L36.24,149.424 L30.272,160.176 L31.568,160.176 Z M30.192,154.496 C29.488,154.496 29.12,153.712 29.12,152.624 C29.12,151.584 29.456,150.752 30.176,150.752 C30.928,150.752 31.216,151.568 31.216,152.624 C31.216,153.792 30.88,154.496 30.192,154.496 Z M37.632,160.144 C39.136,160.144 40.512,159.008 40.512,156.832 C40.512,155.056 39.504,153.744 37.712,153.744 C35.936,153.744 34.8,155.152 34.8,157.008 C34.816,158.96 36.064,160.144 37.632,160.144 Z M37.68,158.816 C36.976,158.816 36.608,158.032 36.624,156.944 C36.624,155.904 36.944,155.072 37.68,155.072 C38.432,155.072 38.704,155.888 38.704,156.944 C38.704,158.112 38.368,158.816 37.68,158.816 Z" id="0%" fill="#000000"></path>
                    <path d="M211.128,160 L211.128,149.6 L209.112,149.6 L206.36,150.88 L206.76,152.704 L208.744,151.76 L208.776,151.76 L208.776,160 L211.128,160 Z M218.28,160.176 C220.936,160.176 222.232,157.968 222.232,154.752 C222.232,151.904 221.144,149.424 218.36,149.424 C215.672,149.424 214.392,151.808 214.392,154.816 C214.408,157.76 215.592,160.176 218.28,160.176 Z M218.344,158.336 C217.434963,158.336 216.867171,157.28259 216.840647,155.075759 L216.84,154.816 C216.824,152.4 217.432,151.264 218.328,151.264 C219.304,151.264 219.8,152.48 219.8,154.784 C219.8,157.152 219.288,158.336 218.344,158.336 Z M227.16,160.176 C229.816,160.176 231.112,157.968 231.112,154.752 C231.112,151.904 230.024,149.424 227.24,149.424 C224.552,149.424 223.272,151.808 223.272,154.816 C223.288,157.76 224.472,160.176 227.16,160.176 Z M227.224,158.336 C226.314963,158.336 225.747171,157.28259 225.720647,155.075759 L225.72,154.816 C225.704,152.4 226.312,151.264 227.208,151.264 C228.184,151.264 228.68,152.48 228.68,154.784 C228.68,157.152 228.168,158.336 227.224,158.336 Z M234.904,155.824 C236.408,155.824 237.784,154.688 237.784,152.512 C237.784,150.736 236.776,149.424 234.984,149.424 C233.208,149.424 232.072,150.832 232.072,152.688 C232.072,154.64 233.32,155.824 234.904,155.824 Z M236.328,160.176 L242.312,149.424 L241,149.424 L235.032,160.176 L236.328,160.176 Z M234.952,154.496 C234.248,154.496 233.88,153.712 233.88,152.624 C233.88,151.584 234.216,150.752 234.936,150.752 C235.688,150.752 235.976,151.568 235.976,152.624 C235.976,153.792 235.64,154.496 234.952,154.496 Z M242.392,160.144 C243.896,160.144 245.272,159.008 245.272,156.832 C245.272,155.056 244.264,153.744 242.472,153.744 C240.696,153.744 239.56,155.152 239.56,157.008 C239.576,158.96 240.824,160.144 242.392,160.144 Z M242.44,158.816 C241.736,158.816 241.368,158.032 241.384,156.944 C241.384,155.904 241.704,155.072 242.44,155.072 C243.192,155.072 243.464,155.888 243.464,156.944 C243.464,158.112 243.128,158.816 242.44,158.816 Z" id="100%" fill="#000000"></path>
                </g>
            </g>
        </g>
    </g>
</svg>